<mxfile host="app.diagrams.net" modified="2020-05-18T10:02:47.078Z" agent="5.0 (X11; Linux x86_64) AppleWebKit/537.36 (KHTML, like Gecko) Chrome/81.0.4044.138 Safari/537.36" etag="QUBuAbNVnjJO7BE2mNTq" version="13.1.2" type="github" pages="2">
  <diagram id="K2olrwuD8WXQZ9cFfgXY" name="Page-1">
    <mxGraphModel dx="818" dy="494" grid="1" gridSize="10" guides="1" tooltips="1" connect="1" arrows="1" fold="1" page="1" pageScale="1" pageWidth="850" pageHeight="1100" math="0" shadow="0">
      <root>
        <mxCell id="0" />
        <mxCell id="1" parent="0" />
        <mxCell id="Vb1MPSddZ04qAowR7dYn-1" value="SanPhamUI" style="shape=umlLifeline;participant=umlBoundary;perimeter=lifelinePerimeter;whiteSpace=wrap;html=1;container=1;collapsible=0;recursiveResize=0;verticalAlign=top;spacingTop=36;labelBackgroundColor=#ffffff;outlineConnect=0;shadow=0;" vertex="1" parent="1">
          <mxGeometry x="190" y="40" width="50" height="1020" as="geometry" />
        </mxCell>
        <mxCell id="Vb1MPSddZ04qAowR7dYn-2" value="" style="html=1;points=[];perimeter=orthogonalPerimeter;shadow=0;" vertex="1" parent="Vb1MPSddZ04qAowR7dYn-1">
          <mxGeometry x="20" y="231" width="10" height="40" as="geometry" />
        </mxCell>
        <mxCell id="Vb1MPSddZ04qAowR7dYn-3" value="Hiển thị bảng các sản phẩm" style="edgeStyle=orthogonalEdgeStyle;html=1;align=left;spacingLeft=2;endArrow=block;rounded=0;entryX=1;entryY=0;" edge="1" parent="Vb1MPSddZ04qAowR7dYn-1" target="Vb1MPSddZ04qAowR7dYn-2">
          <mxGeometry x="0.3846" y="-22" relative="1" as="geometry">
            <mxPoint x="25" y="211" as="sourcePoint" />
            <Array as="points">
              <mxPoint x="50" y="211" />
            </Array>
            <mxPoint x="20" y="12" as="offset" />
          </mxGeometry>
        </mxCell>
        <mxCell id="Vb1MPSddZ04qAowR7dYn-4" value="" style="html=1;points=[];perimeter=orthogonalPerimeter;shadow=0;" vertex="1" parent="Vb1MPSddZ04qAowR7dYn-1">
          <mxGeometry x="20" y="500" width="10" height="40" as="geometry" />
        </mxCell>
        <mxCell id="Vb1MPSddZ04qAowR7dYn-5" value="Hiển thị form thông tin cũ của sản phẩm" style="edgeStyle=orthogonalEdgeStyle;html=1;align=left;spacingLeft=2;endArrow=block;rounded=0;entryX=1;entryY=0;" edge="1" parent="Vb1MPSddZ04qAowR7dYn-1" target="Vb1MPSddZ04qAowR7dYn-4">
          <mxGeometry x="0.3846" y="-22" relative="1" as="geometry">
            <mxPoint x="25" y="480" as="sourcePoint" />
            <Array as="points">
              <mxPoint x="50" y="480" />
            </Array>
            <mxPoint x="20" y="12" as="offset" />
          </mxGeometry>
        </mxCell>
        <mxCell id="Vb1MPSddZ04qAowR7dYn-6" value="Điền thông tin mới và kích nút vào &quot;Chỉnh sửa&quot;" style="html=1;verticalAlign=bottom;startArrow=none;endArrow=block;startSize=8;startFill=0;" edge="1" parent="Vb1MPSddZ04qAowR7dYn-1">
          <mxGeometry x="0.1483" y="11" relative="1" as="geometry">
            <mxPoint x="-80" y="569" as="sourcePoint" />
            <mxPoint x="24.5" y="569" as="targetPoint" />
            <Array as="points">
              <mxPoint x="-10" y="569" />
            </Array>
            <mxPoint x="-10" y="6" as="offset" />
          </mxGeometry>
        </mxCell>
        <mxCell id="Vb1MPSddZ04qAowR7dYn-7" value="" style="html=1;points=[];perimeter=orthogonalPerimeter;shadow=0;" vertex="1" parent="Vb1MPSddZ04qAowR7dYn-1">
          <mxGeometry x="20" y="569" width="10" height="40" as="geometry" />
        </mxCell>
        <mxCell id="Vb1MPSddZ04qAowR7dYn-8" value="" style="html=1;points=[];perimeter=orthogonalPerimeter;shadow=0;" vertex="1" parent="Vb1MPSddZ04qAowR7dYn-1">
          <mxGeometry x="20" y="629" width="10" height="40" as="geometry" />
        </mxCell>
        <mxCell id="Vb1MPSddZ04qAowR7dYn-9" value="Hiển thị thông báo có sản phẩm" style="edgeStyle=orthogonalEdgeStyle;html=1;align=left;spacingLeft=2;endArrow=block;rounded=0;entryX=1;entryY=0;" edge="1" parent="Vb1MPSddZ04qAowR7dYn-1" target="Vb1MPSddZ04qAowR7dYn-8">
          <mxGeometry x="0.3846" y="-22" relative="1" as="geometry">
            <mxPoint x="25" y="609" as="sourcePoint" />
            <Array as="points">
              <mxPoint x="50" y="609" />
            </Array>
            <mxPoint x="20" y="12" as="offset" />
          </mxGeometry>
        </mxCell>
        <mxCell id="Vb1MPSddZ04qAowR7dYn-10" value="Kích nút vào &quot;Đồng ý&quot;" style="html=1;verticalAlign=bottom;startArrow=none;endArrow=block;startSize=8;startFill=0;" edge="1" parent="Vb1MPSddZ04qAowR7dYn-1">
          <mxGeometry x="0.1483" y="11" relative="1" as="geometry">
            <mxPoint x="-80" y="698" as="sourcePoint" />
            <mxPoint x="24.5" y="698" as="targetPoint" />
            <Array as="points">
              <mxPoint x="-10" y="698" />
            </Array>
            <mxPoint x="-10" y="6" as="offset" />
          </mxGeometry>
        </mxCell>
        <mxCell id="Vb1MPSddZ04qAowR7dYn-11" value="" style="html=1;points=[];perimeter=orthogonalPerimeter;shadow=0;" vertex="1" parent="Vb1MPSddZ04qAowR7dYn-1">
          <mxGeometry x="20" y="698" width="10" height="40" as="geometry" />
        </mxCell>
        <mxCell id="Vb1MPSddZ04qAowR7dYn-12" value="SanPhamController" style="shape=umlLifeline;participant=umlControl;perimeter=lifelinePerimeter;whiteSpace=wrap;html=1;container=1;collapsible=0;recursiveResize=0;verticalAlign=top;spacingTop=36;labelBackgroundColor=#ffffff;outlineConnect=0;shadow=0;" vertex="1" parent="1">
          <mxGeometry x="320" y="40" width="40" height="1020" as="geometry" />
        </mxCell>
        <mxCell id="Vb1MPSddZ04qAowR7dYn-13" value="" style="html=1;points=[];perimeter=orthogonalPerimeter;shadow=0;" vertex="1" parent="Vb1MPSddZ04qAowR7dYn-12">
          <mxGeometry x="-110" y="110" width="10" height="40" as="geometry" />
        </mxCell>
        <mxCell id="Vb1MPSddZ04qAowR7dYn-14" value="" style="html=1;points=[];perimeter=orthogonalPerimeter;shadow=0;" vertex="1" parent="Vb1MPSddZ04qAowR7dYn-12">
          <mxGeometry x="260" y="150" width="10" height="40" as="geometry" />
        </mxCell>
        <mxCell id="Vb1MPSddZ04qAowR7dYn-15" value="" style="html=1;points=[];perimeter=orthogonalPerimeter;shadow=0;" vertex="1" parent="Vb1MPSddZ04qAowR7dYn-12">
          <mxGeometry x="10" y="110" width="10" height="40" as="geometry" />
        </mxCell>
        <mxCell id="Vb1MPSddZ04qAowR7dYn-16" value="Yêu cầu lấy thông tin sản phẩm()" style="html=1;verticalAlign=bottom;startArrow=none;endArrow=block;startSize=8;startFill=0;" edge="1" parent="Vb1MPSddZ04qAowR7dYn-12" target="Vb1MPSddZ04qAowR7dYn-15">
          <mxGeometry x="-0.0408" relative="1" as="geometry">
            <mxPoint x="-105.29999999999995" y="110" as="sourcePoint" />
            <mxPoint as="offset" />
          </mxGeometry>
        </mxCell>
        <mxCell id="Vb1MPSddZ04qAowR7dYn-18" value="Lấy bảng Product()" style="html=1;verticalAlign=bottom;startArrow=none;endArrow=block;startSize=8;startFill=0;" edge="1" parent="Vb1MPSddZ04qAowR7dYn-12" target="Vb1MPSddZ04qAowR7dYn-14">
          <mxGeometry x="-0.039" y="10" relative="1" as="geometry">
            <mxPoint x="24.5" y="150" as="sourcePoint" />
            <mxPoint x="1" as="offset" />
          </mxGeometry>
        </mxCell>
        <mxCell id="Vb1MPSddZ04qAowR7dYn-19" value="Product&lt;br&gt;" style="shape=umlLifeline;participant=umlEntity;perimeter=lifelinePerimeter;whiteSpace=wrap;html=1;container=1;collapsible=0;recursiveResize=0;verticalAlign=top;spacingTop=36;labelBackgroundColor=#ffffff;outlineConnect=0;shadow=0;" vertex="1" parent="1">
          <mxGeometry x="440" y="40" width="40" height="1010" as="geometry" />
        </mxCell>
        <mxCell id="Vb1MPSddZ04qAowR7dYn-32" value="" style="html=1;points=[];perimeter=orthogonalPerimeter;shadow=0;" vertex="1" parent="Vb1MPSddZ04qAowR7dYn-19">
          <mxGeometry x="10" y="800" width="10" height="40" as="geometry" />
        </mxCell>
        <mxCell id="Vb1MPSddZ04qAowR7dYn-20" value="ICSDL" style="shape=umlLifeline;participant=umlBoundary;perimeter=lifelinePerimeter;whiteSpace=wrap;html=1;container=1;collapsible=0;recursiveResize=0;verticalAlign=top;spacingTop=36;labelBackgroundColor=#ffffff;outlineConnect=0;shadow=0;" vertex="1" parent="1">
          <mxGeometry x="560" y="40" width="50" height="1000" as="geometry" />
        </mxCell>
        <mxCell id="Vb1MPSddZ04qAowR7dYn-21" value="Kích nút&amp;nbsp; vào sản phẩm" style="html=1;verticalAlign=bottom;endArrow=block;" edge="1" parent="1" source="Vb1MPSddZ04qAowR7dYn-22" target="Vb1MPSddZ04qAowR7dYn-1">
          <mxGeometry x="-0.1217" width="80" relative="1" as="geometry">
            <mxPoint x="110" y="270" as="sourcePoint" />
            <mxPoint x="190" y="270" as="targetPoint" />
            <Array as="points">
              <mxPoint x="110" y="130" />
              <mxPoint x="150" y="130" />
            </Array>
            <mxPoint as="offset" />
          </mxGeometry>
        </mxCell>
        <mxCell id="Vb1MPSddZ04qAowR7dYn-22" value="Admin&lt;br&gt;" style="shape=umlLifeline;participant=umlActor;perimeter=lifelinePerimeter;whiteSpace=wrap;html=1;container=1;collapsible=0;recursiveResize=0;verticalAlign=top;spacingTop=36;labelBackgroundColor=#ffffff;outlineConnect=0;shadow=0;" vertex="1" parent="1">
          <mxGeometry x="90" y="40" width="30" height="1010" as="geometry" />
        </mxCell>
        <mxCell id="Vb1MPSddZ04qAowR7dYn-23" value="return" style="html=1;verticalAlign=bottom;endArrow=open;dashed=1;endSize=8;" edge="1" parent="1" source="Vb1MPSddZ04qAowR7dYn-19">
          <mxGeometry relative="1" as="geometry">
            <mxPoint x="339.5" y="230" as="sourcePoint" />
            <mxPoint x="210" y="230" as="targetPoint" />
          </mxGeometry>
        </mxCell>
        <mxCell id="Vb1MPSddZ04qAowR7dYn-24" value="Kích nút vào biểu tượng edit của sản phẩm cần sửa" style="html=1;verticalAlign=bottom;startArrow=none;endArrow=block;startSize=8;startFill=0;" edge="1" parent="1">
          <mxGeometry x="0.1483" y="11" relative="1" as="geometry">
            <mxPoint x="110" y="340" as="sourcePoint" />
            <mxPoint x="214.5" y="340" as="targetPoint" />
            <Array as="points">
              <mxPoint x="180" y="340" />
            </Array>
            <mxPoint x="-10" y="6" as="offset" />
          </mxGeometry>
        </mxCell>
        <mxCell id="Vb1MPSddZ04qAowR7dYn-25" value="" style="html=1;points=[];perimeter=orthogonalPerimeter;shadow=0;" vertex="1" parent="1">
          <mxGeometry x="210" y="340" width="10" height="40" as="geometry" />
        </mxCell>
        <mxCell id="Vb1MPSddZ04qAowR7dYn-26" value="" style="html=1;points=[];perimeter=orthogonalPerimeter;shadow=0;" vertex="1" parent="1">
          <mxGeometry x="210" y="901" width="10" height="40" as="geometry" />
        </mxCell>
        <mxCell id="Vb1MPSddZ04qAowR7dYn-27" value="Hiển thị bảng sản phẩm mới&amp;nbsp;" style="edgeStyle=orthogonalEdgeStyle;html=1;align=left;spacingLeft=2;endArrow=block;rounded=0;entryX=1;entryY=0;" edge="1" parent="1" target="Vb1MPSddZ04qAowR7dYn-26">
          <mxGeometry x="0.3846" y="-22" relative="1" as="geometry">
            <mxPoint x="215" y="881" as="sourcePoint" />
            <Array as="points">
              <mxPoint x="240" y="881" />
            </Array>
            <mxPoint x="20" y="12" as="offset" />
          </mxGeometry>
        </mxCell>
        <mxCell id="Vb1MPSddZ04qAowR7dYn-28" value="" style="html=1;points=[];perimeter=orthogonalPerimeter;shadow=0;" vertex="1" parent="1">
          <mxGeometry x="210" y="780" width="10" height="40" as="geometry" />
        </mxCell>
        <mxCell id="Vb1MPSddZ04qAowR7dYn-29" value="" style="html=1;points=[];perimeter=orthogonalPerimeter;shadow=0;" vertex="1" parent="1">
          <mxGeometry x="580" y="820" width="10" height="40" as="geometry" />
        </mxCell>
        <mxCell id="Vb1MPSddZ04qAowR7dYn-30" value="" style="html=1;points=[];perimeter=orthogonalPerimeter;shadow=0;" vertex="1" parent="1">
          <mxGeometry x="330" y="780" width="10" height="40" as="geometry" />
        </mxCell>
        <mxCell id="Vb1MPSddZ04qAowR7dYn-31" value="Yêu cầu lấy kiểm tra thông tin sản phẩm và sửa Product()" style="html=1;verticalAlign=bottom;startArrow=none;endArrow=block;startSize=8;startFill=0;" edge="1" parent="1" target="Vb1MPSddZ04qAowR7dYn-30">
          <mxGeometry x="-0.0408" relative="1" as="geometry">
            <mxPoint x="214.70000000000005" y="780" as="sourcePoint" />
            <mxPoint as="offset" />
          </mxGeometry>
        </mxCell>
        <mxCell id="Vb1MPSddZ04qAowR7dYn-33" value="Sửa Product()" style="html=1;verticalAlign=bottom;startArrow=none;endArrow=block;startSize=8;startFill=0;" edge="1" parent="1" target="Vb1MPSddZ04qAowR7dYn-29">
          <mxGeometry x="-0.039" y="10" relative="1" as="geometry">
            <mxPoint x="344.5" y="820" as="sourcePoint" />
            <mxPoint x="1" as="offset" />
          </mxGeometry>
        </mxCell>
        <mxCell id="Vb1MPSddZ04qAowR7dYn-34" value="return" style="html=1;verticalAlign=bottom;endArrow=open;dashed=1;endSize=8;" edge="1" parent="1" target="Vb1MPSddZ04qAowR7dYn-1">
          <mxGeometry relative="1" as="geometry">
            <mxPoint x="450" y="839.5" as="sourcePoint" />
            <mxPoint x="320.5" y="839.5" as="targetPoint" />
          </mxGeometry>
        </mxCell>
        <mxCell id="Vb1MPSddZ04qAowR7dYn-35" value="" style="html=1;points=[];perimeter=orthogonalPerimeter;shadow=0;" vertex="1" parent="1">
          <mxGeometry x="210" y="400" width="10" height="40" as="geometry" />
        </mxCell>
        <mxCell id="Vb1MPSddZ04qAowR7dYn-36" value="" style="html=1;points=[];perimeter=orthogonalPerimeter;shadow=0;" vertex="1" parent="1">
          <mxGeometry x="580" y="440" width="10" height="40" as="geometry" />
        </mxCell>
        <mxCell id="Vb1MPSddZ04qAowR7dYn-37" value="" style="html=1;points=[];perimeter=orthogonalPerimeter;shadow=0;" vertex="1" parent="1">
          <mxGeometry x="330" y="400" width="10" height="40" as="geometry" />
        </mxCell>
        <mxCell id="Vb1MPSddZ04qAowR7dYn-38" value="Yêu cầu lấy thông tin sản phẩm()" style="html=1;verticalAlign=bottom;startArrow=none;endArrow=block;startSize=8;startFill=0;" edge="1" parent="1" target="Vb1MPSddZ04qAowR7dYn-37">
          <mxGeometry x="-0.0408" relative="1" as="geometry">
            <mxPoint x="214.70000000000005" y="400" as="sourcePoint" />
            <mxPoint as="offset" />
          </mxGeometry>
        </mxCell>
        <mxCell id="Vb1MPSddZ04qAowR7dYn-39" value="" style="html=1;points=[];perimeter=orthogonalPerimeter;shadow=0;" vertex="1" parent="1">
          <mxGeometry x="450" y="440" width="10" height="40" as="geometry" />
        </mxCell>
        <mxCell id="Vb1MPSddZ04qAowR7dYn-40" value="Lấy bảng Product()" style="html=1;verticalAlign=bottom;startArrow=none;endArrow=block;startSize=8;startFill=0;" edge="1" parent="1" target="Vb1MPSddZ04qAowR7dYn-36">
          <mxGeometry x="-0.039" y="10" relative="1" as="geometry">
            <mxPoint x="344.5" y="440" as="sourcePoint" />
            <mxPoint x="1" as="offset" />
          </mxGeometry>
        </mxCell>
        <mxCell id="Vb1MPSddZ04qAowR7dYn-41" value="return" style="html=1;verticalAlign=bottom;endArrow=open;dashed=1;endSize=8;exitX=-0.2;exitY=1;exitDx=0;exitDy=0;exitPerimeter=0;" edge="1" parent="1" source="Vb1MPSddZ04qAowR7dYn-39">
          <mxGeometry relative="1" as="geometry">
            <mxPoint x="339.5" y="480" as="sourcePoint" />
            <mxPoint x="210" y="480" as="targetPoint" />
          </mxGeometry>
        </mxCell>
        <mxCell id="Vb1MPSddZ04qAowR7dYn-17" value="" style="html=1;points=[];perimeter=orthogonalPerimeter;shadow=0;" vertex="1" parent="1">
          <mxGeometry x="450" y="190" width="10" height="40" as="geometry" />
        </mxCell>
      </root>
    </mxGraphModel>
  </diagram>
  <diagram id="LgP6IbyjmqwLP1MN4Gct" name="Page-2">
    <mxGraphModel dx="635" dy="240" grid="1" gridSize="10" guides="1" tooltips="1" connect="1" arrows="1" fold="1" page="1" pageScale="1" pageWidth="850" pageHeight="1100" math="0" shadow="0">
      <root>
        <mxCell id="_1xR2Ck7pXoWXMfc3ulZ-0" />
        <mxCell id="_1xR2Ck7pXoWXMfc3ulZ-1" parent="_1xR2Ck7pXoWXMfc3ulZ-0" />
        <mxCell id="1AfwoQiR1ogUlLU-3jEC-0" value="GioHangUI" style="shape=umlLifeline;participant=umlBoundary;perimeter=lifelinePerimeter;whiteSpace=wrap;html=1;container=1;collapsible=0;recursiveResize=0;verticalAlign=top;spacingTop=36;labelBackgroundColor=#ffffff;outlineConnect=0;shadow=0;" vertex="1" parent="_1xR2Ck7pXoWXMfc3ulZ-1">
          <mxGeometry x="190" y="40" width="50" height="1020" as="geometry" />
        </mxCell>
        <mxCell id="1AfwoQiR1ogUlLU-3jEC-1" value="" style="html=1;points=[];perimeter=orthogonalPerimeter;shadow=0;" vertex="1" parent="1AfwoQiR1ogUlLU-3jEC-0">
          <mxGeometry x="20" y="120" width="10" height="40" as="geometry" />
        </mxCell>
        <mxCell id="1AfwoQiR1ogUlLU-3jEC-2" value="Hiển thị thông tin sản phẩm" style="edgeStyle=orthogonalEdgeStyle;html=1;align=left;spacingLeft=2;endArrow=block;rounded=0;entryX=1;entryY=0;" edge="1" parent="1AfwoQiR1ogUlLU-3jEC-0" target="1AfwoQiR1ogUlLU-3jEC-1">
          <mxGeometry x="0.0462" relative="1" as="geometry">
            <mxPoint x="25" y="100" as="sourcePoint" />
            <Array as="points">
              <mxPoint x="50" y="100" />
            </Array>
            <mxPoint as="offset" />
          </mxGeometry>
        </mxCell>
        <mxCell id="1AfwoQiR1ogUlLU-3jEC-3" value="" style="html=1;points=[];perimeter=orthogonalPerimeter;shadow=0;" vertex="1" parent="1AfwoQiR1ogUlLU-3jEC-0">
          <mxGeometry x="20" y="500" width="10" height="40" as="geometry" />
        </mxCell>
        <mxCell id="1AfwoQiR1ogUlLU-3jEC-4" value="Hiển thị thông báo mua hàng thành công" style="edgeStyle=orthogonalEdgeStyle;html=1;align=left;spacingLeft=2;endArrow=block;rounded=0;entryX=1;entryY=0;" edge="1" parent="1AfwoQiR1ogUlLU-3jEC-0" target="1AfwoQiR1ogUlLU-3jEC-3">
          <mxGeometry x="0.3846" y="-22" relative="1" as="geometry">
            <mxPoint x="25" y="480" as="sourcePoint" />
            <Array as="points">
              <mxPoint x="50" y="480" />
            </Array>
            <mxPoint x="20" y="12" as="offset" />
          </mxGeometry>
        </mxCell>
        <mxCell id="1AfwoQiR1ogUlLU-3jEC-11" value="GioHangController" style="shape=umlLifeline;participant=umlControl;perimeter=lifelinePerimeter;whiteSpace=wrap;html=1;container=1;collapsible=0;recursiveResize=0;verticalAlign=top;spacingTop=36;labelBackgroundColor=#ffffff;outlineConnect=0;shadow=0;" vertex="1" parent="_1xR2Ck7pXoWXMfc3ulZ-1">
          <mxGeometry x="320" y="40" width="40" height="1020" as="geometry" />
        </mxCell>
        <mxCell id="1AfwoQiR1ogUlLU-3jEC-41" value="OrderDetail" style="shape=umlLifeline;participant=umlEntity;perimeter=lifelinePerimeter;whiteSpace=wrap;html=1;container=1;collapsible=0;recursiveResize=0;verticalAlign=top;spacingTop=36;labelBackgroundColor=#ffffff;outlineConnect=0;" vertex="1" parent="1AfwoQiR1ogUlLU-3jEC-11">
          <mxGeometry x="240" width="40" height="1000" as="geometry" />
        </mxCell>
        <mxCell id="1AfwoQiR1ogUlLU-3jEC-38" value="" style="html=1;points=[];perimeter=orthogonalPerimeter;shadow=0;" vertex="1" parent="1AfwoQiR1ogUlLU-3jEC-41">
          <mxGeometry x="15" y="320" width="10" height="40" as="geometry" />
        </mxCell>
        <mxCell id="1AfwoQiR1ogUlLU-3jEC-35" value="" style="html=1;points=[];perimeter=orthogonalPerimeter;shadow=0;" vertex="1" parent="1AfwoQiR1ogUlLU-3jEC-11">
          <mxGeometry x="360" y="290" width="10" height="40" as="geometry" />
        </mxCell>
        <mxCell id="1AfwoQiR1ogUlLU-3jEC-34" value="" style="html=1;points=[];perimeter=orthogonalPerimeter;shadow=0;" vertex="1" parent="1AfwoQiR1ogUlLU-3jEC-11">
          <mxGeometry x="-110" y="250" width="10" height="40" as="geometry" />
        </mxCell>
        <mxCell id="1AfwoQiR1ogUlLU-3jEC-36" value="" style="html=1;points=[];perimeter=orthogonalPerimeter;shadow=0;" vertex="1" parent="1AfwoQiR1ogUlLU-3jEC-11">
          <mxGeometry x="10" y="250" width="10" height="40" as="geometry" />
        </mxCell>
        <mxCell id="1AfwoQiR1ogUlLU-3jEC-37" value="Yêu cầu lấy thông tin đơn hàng()" style="html=1;verticalAlign=bottom;startArrow=none;endArrow=block;startSize=8;startFill=0;" edge="1" parent="1AfwoQiR1ogUlLU-3jEC-11" target="1AfwoQiR1ogUlLU-3jEC-36">
          <mxGeometry x="-0.0408" relative="1" as="geometry">
            <mxPoint x="-105.29999999999995" y="250" as="sourcePoint" />
            <mxPoint as="offset" />
          </mxGeometry>
        </mxCell>
        <mxCell id="1AfwoQiR1ogUlLU-3jEC-39" value="Thêm Order()" style="html=1;verticalAlign=bottom;startArrow=none;endArrow=block;startSize=8;startFill=0;" edge="1" parent="1AfwoQiR1ogUlLU-3jEC-11" target="1AfwoQiR1ogUlLU-3jEC-35">
          <mxGeometry x="-0.039" y="10" relative="1" as="geometry">
            <mxPoint x="24.5" y="290" as="sourcePoint" />
            <mxPoint x="1" as="offset" />
          </mxGeometry>
        </mxCell>
        <mxCell id="1AfwoQiR1ogUlLU-3jEC-18" value="Order&amp;nbsp;" style="shape=umlLifeline;participant=umlEntity;perimeter=lifelinePerimeter;whiteSpace=wrap;html=1;container=1;collapsible=0;recursiveResize=0;verticalAlign=top;spacingTop=36;labelBackgroundColor=#ffffff;outlineConnect=0;shadow=0;" vertex="1" parent="_1xR2Ck7pXoWXMfc3ulZ-1">
          <mxGeometry x="440" y="40" width="40" height="1010" as="geometry" />
        </mxCell>
        <mxCell id="1AfwoQiR1ogUlLU-3jEC-19" value="ICSDL" style="shape=umlLifeline;participant=umlBoundary;perimeter=lifelinePerimeter;whiteSpace=wrap;html=1;container=1;collapsible=0;recursiveResize=0;verticalAlign=top;spacingTop=36;labelBackgroundColor=#ffffff;outlineConnect=0;shadow=0;" vertex="1" parent="_1xR2Ck7pXoWXMfc3ulZ-1">
          <mxGeometry x="660" y="45" width="50" height="1000" as="geometry" />
        </mxCell>
        <mxCell id="Ef--mQPj54VD7Pch1YLT-0" value="" style="html=1;points=[];perimeter=orthogonalPerimeter;shadow=0;" vertex="1" parent="1AfwoQiR1ogUlLU-3jEC-19">
          <mxGeometry x="20" y="395" width="10" height="40" as="geometry" />
        </mxCell>
        <mxCell id="1AfwoQiR1ogUlLU-3jEC-20" value="Kích nút&amp;nbsp; vào đặt hàng" style="html=1;verticalAlign=bottom;endArrow=block;" edge="1" parent="_1xR2Ck7pXoWXMfc3ulZ-1" source="1AfwoQiR1ogUlLU-3jEC-21" target="1AfwoQiR1ogUlLU-3jEC-0">
          <mxGeometry x="-0.1217" width="80" relative="1" as="geometry">
            <mxPoint x="110" y="270" as="sourcePoint" />
            <mxPoint x="190" y="270" as="targetPoint" />
            <Array as="points">
              <mxPoint x="110" y="130" />
              <mxPoint x="150" y="130" />
            </Array>
            <mxPoint as="offset" />
          </mxGeometry>
        </mxCell>
        <mxCell id="1AfwoQiR1ogUlLU-3jEC-21" value="KhachHang" style="shape=umlLifeline;participant=umlActor;perimeter=lifelinePerimeter;whiteSpace=wrap;html=1;container=1;collapsible=0;recursiveResize=0;verticalAlign=top;spacingTop=36;labelBackgroundColor=#ffffff;outlineConnect=0;shadow=0;" vertex="1" parent="_1xR2Ck7pXoWXMfc3ulZ-1">
          <mxGeometry x="90" y="40" width="30" height="1010" as="geometry" />
        </mxCell>
        <mxCell id="1AfwoQiR1ogUlLU-3jEC-23" value="Điền thông tin các trường và kích đặt hàng" style="html=1;verticalAlign=bottom;startArrow=none;endArrow=block;startSize=8;startFill=0;" edge="1" parent="_1xR2Ck7pXoWXMfc3ulZ-1">
          <mxGeometry x="0.1483" y="11" relative="1" as="geometry">
            <mxPoint x="110" y="229" as="sourcePoint" />
            <mxPoint x="214.5" y="229" as="targetPoint" />
            <Array as="points">
              <mxPoint x="180" y="229" />
            </Array>
            <mxPoint x="-10" y="6" as="offset" />
          </mxGeometry>
        </mxCell>
        <mxCell id="1AfwoQiR1ogUlLU-3jEC-24" value="" style="html=1;points=[];perimeter=orthogonalPerimeter;shadow=0;" vertex="1" parent="_1xR2Ck7pXoWXMfc3ulZ-1">
          <mxGeometry x="210" y="229" width="10" height="40" as="geometry" />
        </mxCell>
        <mxCell id="1AfwoQiR1ogUlLU-3jEC-40" value="return" style="html=1;verticalAlign=bottom;endArrow=open;dashed=1;endSize=8;" edge="1" parent="_1xR2Ck7pXoWXMfc3ulZ-1" source="1AfwoQiR1ogUlLU-3jEC-41" target="1AfwoQiR1ogUlLU-3jEC-0">
          <mxGeometry relative="1" as="geometry">
            <mxPoint x="340" y="400" as="sourcePoint" />
            <mxPoint x="210.5" y="400" as="targetPoint" />
            <Array as="points">
              <mxPoint x="520" y="360" />
              <mxPoint x="380" y="360" />
            </Array>
          </mxGeometry>
        </mxCell>
        <mxCell id="Ef--mQPj54VD7Pch1YLT-1" value="Thêm Ordetails theo Order()" style="html=1;verticalAlign=bottom;startArrow=none;endArrow=block;startSize=8;startFill=0;" edge="1" parent="_1xR2Ck7pXoWXMfc3ulZ-1">
          <mxGeometry x="-0.039" y="10" relative="1" as="geometry">
            <mxPoint x="350" y="440" as="sourcePoint" />
            <mxPoint x="1" as="offset" />
            <mxPoint x="685.5" y="440" as="targetPoint" />
          </mxGeometry>
        </mxCell>
        <mxCell id="Ef--mQPj54VD7Pch1YLT-2" value="" style="html=1;points=[];perimeter=orthogonalPerimeter;shadow=0;" vertex="1" parent="_1xR2Ck7pXoWXMfc3ulZ-1">
          <mxGeometry x="450" y="480" width="10" height="40" as="geometry" />
        </mxCell>
        <mxCell id="Ef--mQPj54VD7Pch1YLT-5" value="return" style="html=1;verticalAlign=bottom;endArrow=open;dashed=1;endSize=8;" edge="1" parent="_1xR2Ck7pXoWXMfc3ulZ-1" source="1AfwoQiR1ogUlLU-3jEC-18" target="1AfwoQiR1ogUlLU-3jEC-0">
          <mxGeometry relative="1" as="geometry">
            <mxPoint x="589.5" y="370" as="sourcePoint" />
            <mxPoint x="224.5" y="370" as="targetPoint" />
            <Array as="points">
              <mxPoint x="440" y="480" />
              <mxPoint x="360" y="480" />
            </Array>
          </mxGeometry>
        </mxCell>
      </root>
    </mxGraphModel>
  </diagram>
</mxfile>
